<svg version="1.1" width="100" height="100" viewBox="0 0 100 100" xmlns="http://www.w3.org/2000/svg">
   <rect width="170" height="100" style="opacity:0" />
   <g transform="translate(9,-4.5)">

      <ellipse cx="41" cy="54.5" rx="45.5" ry="45.5"
         style="stroke-width:6;fill:#00ffaa;stroke:#0088ee;stroke-opacity:1;fill-opacity:1" />

      <path
         d="M 63.706 26.858 c 0.371 -1.872 -0.02 -3.714 -1.099 -5.188 c -1.079 -1.474 -2.718 -2.403 -4.615 -2.614 c -1.869 -0.207 -3.749 0.306 -5.308 1.447 L 21.12 43.616 l 0.155 -8.133 c 0.035 -1.84 -0.664 -3.542 -1.97 -4.794 c -1.352 -1.298 -3.167 -1.949 -5.118 -1.829 c -3.895 0.235 -7.123 3.522 -7.195 7.327 L 6.429 65.864 c -0.121 5.309 1.424 10.31 4.465 14.462 C 15.551 86.685 22.933 90 30.649 90 c 5.704 -0.001 11.592 -1.813 16.691 -5.548 l 13.231 -9.69 c 3.254 -2.382 4.099 -6.785 1.882 -9.813 c -1.072 -1.463 -2.694 -2.387 -4.573 -2.607 l 0.284 -0.208 c 1.558 -1.14 2.618 -2.783 2.982 -4.624 c 0.371 -1.872 -0.02 -3.714 -1.099 -5.188 c -1.313 -1.793 -3.412 -2.7 -5.581 -2.652 c 1.385 -2.353 1.403 -5.287 -0.213 -7.494 c -1.072 -1.463 -2.694 -2.386 -4.572 -2.607 l 11.043 -8.087 C 62.282 30.341 63.341 28.699 63.706 26.858 z"
         style="stroke:#0088ee;stroke-width:6;fill:#ffffff;fill-rule:nonzero;opacity:1;stroke-opacity:1"
         transform=" matrix(1 0 0 1 0 0) " />
   </g>

</svg>